<svg width="204" height="205" viewBox="0 0 204 205" fill="none" xmlns="http://www.w3.org/2000/svg">
<path d="M189.327 80.9585H123.88V15.5115C123.88 7.4806 117.367 0.967712 109.336 0.967712H94.7926C86.7617 0.967712 80.2488 7.4806 80.2488 15.5115V80.9585H14.8018C6.77094 80.9585 0.258057 87.4714 0.258057 95.5023V110.046C0.258057 118.077 6.77094 124.59 14.8018 124.59H80.2488V190.037C80.2488 198.068 86.7617 204.581 94.7926 204.581H109.336C117.367 204.581 123.88 198.068 123.88 190.037V124.59H189.327C197.358 124.59 203.871 118.077 203.871 110.046V95.5023C203.871 87.4714 197.358 80.9585 189.327 80.9585Z" fill="#1FBEF0"/>
</svg>
